<svg width="512" height="512" viewBox="0 0 512 512" fill="none" xmlns="http://www.w3.org/2000/svg">
<g clip-path="url(#clip0_21_19)">
<path d="M146.689 440.97L131.996 499.741C130.439 505.968 135.149 512 141.567 512C144.778 512 147.788 510.437 149.636 507.812L180.713 463.656L146.689 440.97Z" fill="#707487"/>
<path d="M365.312 440.97L380.005 499.741C381.562 505.968 376.852 512 370.434 512C367.223 512 364.213 510.437 362.365 507.812L331.288 463.656L365.312 440.97Z" fill="#707487"/>
<path d="M139.42 470.044C147.996 475.348 156.969 480.063 166.269 484.179L180.713 463.658L146.689 440.971L139.42 470.044Z" fill="#5B5D6E"/>
<path d="M365.312 440.97L331.288 463.657L345.732 484.178C355.031 480.062 364.005 475.347 372.581 470.043L365.312 440.97Z" fill="#5B5D6E"/>
<path d="M264.879 50.299H247.121V85.814H264.879V50.299Z" fill="#C89650"/>
<path d="M256 449.859C349.169 449.859 424.698 374.33 424.698 281.161C424.698 187.992 349.169 112.463 256 112.463C162.831 112.463 87.302 187.992 87.302 281.161C87.302 374.33 162.831 449.859 256 449.859Z" fill="#FFEAE0"/>
<path d="M256 343.313C290.326 343.313 318.152 315.487 318.152 281.161C318.152 246.835 290.326 219.009 256 219.009C221.674 219.009 193.848 246.835 193.848 281.161C193.848 315.487 221.674 343.313 256 343.313Z" fill="#FFE0CC"/>
<path d="M112.955 103.161L129.586 126.918L164.703 102.333L148.071 78.5766L112.955 103.161Z" fill="#C89650"/>
<path d="M383.371 125.627L399.047 103.239L363.808 78.5649L348.133 100.953L383.371 125.627Z" fill="#C89650"/>
<path d="M273.758 59.179H238.243C233.34 59.179 229.364 55.203 229.364 50.3V41.421C229.364 36.518 233.34 32.542 238.243 32.542H273.758C278.661 32.542 282.637 36.518 282.637 41.421V50.3C282.637 55.205 278.662 59.179 273.758 59.179Z" fill="#FFC855"/>
<path d="M256.001 76.943C143.217 76.943 51.787 168.373 51.787 281.157C51.787 393.941 143.217 485.371 256.001 485.371C368.785 485.371 460.215 393.941 460.215 281.157C460.215 168.373 368.784 76.943 256.001 76.943ZM256.001 449.854C162.832 449.854 87.303 374.325 87.303 281.156C87.303 187.986 162.832 112.458 256.001 112.458C349.17 112.458 424.699 187.986 424.699 281.156C424.699 374.326 349.17 449.854 256.001 449.854Z" fill="#00BEA5"/>
<path d="M256.001 156.852C251.098 156.852 247.122 152.876 247.122 147.973V121.336C247.122 116.433 251.097 112.457 256.001 112.457C260.904 112.457 264.88 116.433 264.88 121.336V147.973C264.88 152.877 260.904 156.852 256.001 156.852Z" fill="#5B5D6E"/>
<path d="M256.001 449.854C251.098 449.854 247.122 445.879 247.122 440.975V414.338C247.122 409.435 251.097 405.459 256.001 405.459C260.904 405.459 264.88 409.435 264.88 414.338V440.975C264.88 445.879 260.904 449.854 256.001 449.854Z" fill="#5B5D6E"/>
<path d="M122.818 290.035H96.181C91.278 290.035 87.302 286.06 87.302 281.156C87.302 276.252 91.278 272.277 96.181 272.277H122.818C127.721 272.277 131.697 276.252 131.697 281.156C131.697 286.06 127.721 290.035 122.818 290.035Z" fill="#5B5D6E"/>
<path d="M415.82 290.035H389.183C384.28 290.035 380.304 286.06 380.304 281.156C380.304 276.252 384.28 272.277 389.183 272.277H415.82C420.723 272.277 424.699 276.252 424.699 281.156C424.699 286.06 420.723 290.035 415.82 290.035Z" fill="#5B5D6E"/>
<path d="M140.653 223.444C139.149 223.444 137.623 223.062 136.222 222.256L113.154 208.938C108.905 206.484 107.453 201.056 109.902 196.807C112.356 192.563 117.762 191.093 122.033 193.555L145.101 206.873C149.35 209.327 150.802 214.755 148.353 219.004C146.705 221.853 143.723 223.444 140.653 223.444Z" fill="#959CB3"/>
<path d="M394.399 369.945C392.895 369.945 391.369 369.563 389.968 368.757L366.9 355.439C362.651 352.985 361.199 347.557 363.648 343.308C366.102 339.059 371.512 337.602 375.779 340.056L398.847 353.374C403.096 355.828 404.548 361.256 402.099 365.505C400.451 368.354 397.469 369.945 394.399 369.945Z" fill="#959CB3"/>
<path d="M176.082 428.442C174.578 428.442 173.052 428.06 171.651 427.254C167.402 424.8 165.95 419.372 168.399 415.123L181.717 392.055C184.171 387.802 189.586 386.345 193.848 388.803C198.097 391.257 199.549 396.685 197.1 400.934L183.782 424.002C182.134 426.851 179.152 428.442 176.082 428.442Z" fill="#959CB3"/>
<path d="M322.583 174.698C321.079 174.698 319.553 174.316 318.152 173.51C313.903 171.056 312.451 165.628 314.9 161.379L328.218 138.311C330.672 134.062 336.082 132.597 340.349 135.059C344.598 137.513 346.05 142.941 343.601 147.19L330.283 170.258C328.635 173.106 325.653 174.698 322.583 174.698Z" fill="#959CB3"/>
<path d="M371.347 223.444C368.277 223.444 365.295 221.852 363.647 219.005C361.198 214.756 362.65 209.328 366.899 206.874L389.967 193.556C394.22 191.093 399.644 192.563 402.098 196.808C404.547 201.057 403.095 206.485 398.846 208.939L375.778 222.257C374.378 223.063 372.852 223.444 371.347 223.444Z" fill="#959CB3"/>
<path d="M117.603 369.945C114.533 369.945 111.551 368.353 109.903 365.506C107.454 361.257 108.906 355.829 113.155 353.375L136.223 340.057C140.476 337.603 145.9 339.06 148.354 343.309C150.803 347.558 149.351 352.986 145.102 355.44L122.034 368.758C120.633 369.564 119.107 369.945 117.603 369.945Z" fill="#959CB3"/>
<path d="M335.919 428.442C332.849 428.442 329.867 426.85 328.219 424.003L314.901 400.935C312.452 396.686 313.904 391.258 318.153 388.804C322.402 386.346 327.825 387.803 330.284 392.056L343.602 415.124C346.051 419.373 344.599 424.801 340.35 427.255C338.949 428.061 337.423 428.442 335.919 428.442Z" fill="#959CB3"/>
<path d="M189.418 174.698C186.348 174.698 183.366 173.106 181.718 170.259L168.4 147.19C165.951 142.941 167.403 137.513 171.652 135.059C175.905 132.596 181.329 134.062 183.783 138.311L197.101 161.379C199.55 165.628 198.098 171.056 193.849 173.51C192.448 174.316 190.922 174.698 189.418 174.698Z" fill="#959CB3"/>
<path d="M214.138 362.532C212.634 362.532 211.108 362.15 209.707 361.344C205.458 358.89 204.006 353.462 206.455 349.213L238.996 292.849C241.445 288.6 246.856 287.143 251.127 289.597C255.376 292.051 256.828 297.479 254.379 301.728L221.838 358.092C220.19 360.94 217.208 362.532 214.138 362.532Z" fill="#464655"/>
<path d="M256.001 272.277C251.098 272.277 247.122 268.302 247.122 263.398V183.488C247.122 178.585 251.097 174.609 256.001 174.609C260.904 174.609 264.88 178.585 264.88 183.488V263.398C264.88 268.302 260.904 272.277 256.001 272.277Z" fill="#464655"/>
<path d="M256.001 112.458C162.832 112.458 87.303 187.986 87.303 281.156C87.303 374.325 162.832 449.854 256.001 449.854C349.17 449.854 424.699 374.325 424.699 281.156C424.699 187.987 349.17 112.458 256.001 112.458ZM256.001 432.097C172.64 432.097 105.061 364.518 105.061 281.157C105.061 197.795 172.64 130.217 256.001 130.217C339.362 130.217 406.941 197.795 406.941 281.157C406.941 364.519 339.362 432.097 256.001 432.097Z" fill="#FFD6B3"/>
<path d="M256 303.358C268.259 303.358 278.197 293.42 278.197 281.161C278.197 268.902 268.259 258.964 256 258.964C243.741 258.964 233.803 268.902 233.803 281.161C233.803 293.42 243.741 303.358 256 303.358Z" fill="#FFC855"/>
<path d="M200.235 37.828C172.146 -2.27401 116.675 -12.041 76.573 16.026C36.47 44.11 26.689 99.586 54.769 139.688C56.122 141.617 58.181 142.931 60.5 143.338C61.016 143.429 61.532 143.472 62.044 143.472C63.852 143.472 65.633 142.917 67.138 141.868L198.053 50.196C199.982 48.843 201.296 46.78 201.703 44.465C202.112 42.146 201.582 39.757 200.235 37.828Z" fill="#FFC855"/>
<path d="M435.429 16.026C395.318 -12.054 339.851 -2.26399 311.767 37.829C310.419 39.758 309.89 42.147 310.298 44.466C310.705 46.781 312.019 48.844 313.948 50.197L444.863 141.869C446.367 142.918 448.149 143.473 449.957 143.473C450.469 143.473 450.985 143.43 451.501 143.339C453.821 142.932 455.879 141.618 457.232 139.689C485.311 99.586 475.53 44.11 435.429 16.026Z" fill="#FFC855"/>
<path d="M94.998 118.957C69.018 81.855 75.505 31.635 108.372 2.082C97.267 4.517 86.451 9.112 76.572 16.026C36.47 44.11 26.689 99.586 54.769 139.688C56.122 141.617 58.181 142.931 60.5 143.338C61.016 143.429 61.532 143.472 62.044 143.472C63.852 143.472 65.633 142.917 67.138 141.868L97.051 120.922C96.289 120.358 95.553 119.749 94.998 118.957Z" fill="#FFB44B"/>
<path d="M346.393 68.96C372.012 32.387 420.384 21.135 459.132 40.736C453.078 31.299 445.167 22.844 435.429 16.024C395.318 -12.056 339.852 -2.26601 311.767 37.827C310.419 39.756 309.89 42.145 310.298 44.464C310.705 46.779 312.019 48.842 313.948 50.195L345.065 71.984C345.322 70.914 345.75 69.881 346.393 68.96Z" fill="#FFB44B"/>
</g>
<defs>
<clipPath id="clip0_21_19">
<rect width="512.001" height="512.001" fill="white"/>
</clipPath>
</defs>
</svg>
