<svg width="315" height="315" viewBox="0 0 315 315" fill="none" xmlns="http://www.w3.org/2000/svg">
<g clip-path="url(#clip0_11_13)">
<path d="M256.774 23.942H191.938V17.477C191.938 7.841 184.194 0 174.675 0H140.327C130.806 0 123.061 7.841 123.061 17.478V23.943H58.226C48.607 23.943 40.781 31.703 40.781 41.24V52.669C40.781 59.837 45.201 65.999 51.479 68.62C53.468 108.243 64.979 299.813 65.497 308.421C65.719 312.117 68.781 315.001 72.484 315.001H242.517C246.22 315.001 249.283 312.117 249.504 308.421C250.022 299.814 261.532 108.243 263.522 68.62C269.8 65.999 274.22 59.837 274.22 52.669V41.239C274.22 31.702 266.394 23.942 256.774 23.942V23.942ZM137.061 17.478C137.061 15.56 138.526 14 140.327 14H174.675C176.475 14 177.939 15.56 177.939 17.478V23.943H137.062V17.478H137.061ZM54.779 41.239C54.779 39.421 56.325 37.942 58.224 37.942H256.773C258.672 37.942 260.218 39.42 260.218 41.239V52.668C260.218 54.487 258.672 55.967 256.773 55.967H58.225C56.326 55.967 54.78 54.488 54.78 52.668V41.239H54.779ZM235.922 301H79.074C77.019 266.753 67.595 109.326 65.564 69.967H249.431C247.4 109.326 237.977 266.753 235.922 301V301Z" fill="black"/>
<path d="M157.5 95.125C153.634 95.125 150.5 98.259 150.5 102.125V278.234C150.5 282.1 153.634 285.234 157.5 285.234C161.366 285.234 164.5 282.1 164.5 278.234V102.125C164.5 98.259 161.366 95.125 157.5 95.125V95.125Z" fill="black"/>
<path d="M110.2 102.04C109.998 98.18 106.693 95.203 102.845 95.415C98.985 95.616 96.018 98.909 96.22 102.77L105.402 278.599C105.597 282.335 108.687 285.234 112.386 285.234C112.509 285.234 112.633 285.231 112.757 285.224C116.617 285.023 119.584 281.73 119.382 277.869L110.2 102.04V102.04Z" fill="black"/>
<path d="M212.155 95.415C208.256 95.192 205.002 98.179 204.8 102.04L195.616 277.869C195.414 281.73 198.381 285.023 202.241 285.224C202.366 285.231 202.489 285.234 202.612 285.234C206.31 285.234 209.401 282.336 209.596 278.599L218.78 102.77C218.982 98.909 216.016 95.616 212.155 95.415V95.415Z" fill="black"/>
</g>
<defs>
<clipPath id="clip0_11_13">
<rect width="315" height="315" fill="white"/>
</clipPath>
</defs>
</svg>
